<svg xmlns="http://www.w3.org/2000/svg" viewBox="0 0 660 350" width="660" height="350">
<rect x="0" y="0" width="660" height="350" fill="#ffffff"/>
<defs><marker id="fl" viewBox="0 0 10 10" refX="9" refY="5" markerWidth="7" markerHeight="7" orient="auto-start-reverse"><path d="M0,0 L10,5 L0,10 z" fill="#6b7280"/></marker></defs>
<line x1="62" y1="266.0" x2="644" y2="266.0" stroke="#e3e6ea"/>
<text x="56.0" y="270.0" font-size="10" fill="#6b7280" text-anchor="end" font-family="-apple-system,'Segoe UI',Helvetica,Arial,sans-serif">0</text>
<line x1="62" y1="228.3" x2="644" y2="228.3" stroke="#e3e6ea"/>
<text x="56.0" y="232.3" font-size="10" fill="#6b7280" text-anchor="end" font-family="-apple-system,'Segoe UI',Helvetica,Arial,sans-serif">10 000</text>
<line x1="62" y1="190.7" x2="644" y2="190.7" stroke="#e3e6ea"/>
<text x="56.0" y="194.7" font-size="10" fill="#6b7280" text-anchor="end" font-family="-apple-system,'Segoe UI',Helvetica,Arial,sans-serif">20 000</text>
<line x1="62" y1="153.0" x2="644" y2="153.0" stroke="#e3e6ea"/>
<text x="56.0" y="157.0" font-size="10" fill="#6b7280" text-anchor="end" font-family="-apple-system,'Segoe UI',Helvetica,Arial,sans-serif">30 000</text>
<line x1="62" y1="115.3" x2="644" y2="115.3" stroke="#e3e6ea"/>
<text x="56.0" y="119.3" font-size="10" fill="#6b7280" text-anchor="end" font-family="-apple-system,'Segoe UI',Helvetica,Arial,sans-serif">40 000</text>
<line x1="62" y1="77.7" x2="644" y2="77.7" stroke="#e3e6ea"/>
<text x="56.0" y="81.7" font-size="10" fill="#6b7280" text-anchor="end" font-family="-apple-system,'Segoe UI',Helvetica,Arial,sans-serif">50 000</text>
<line x1="62" y1="40.0" x2="644" y2="40.0" stroke="#e3e6ea"/>
<text x="56.0" y="44.0" font-size="10" fill="#6b7280" text-anchor="end" font-family="-apple-system,'Segoe UI',Helvetica,Arial,sans-serif">60 000</text>
<line x1="62.0" y1="266.0" x2="644.0" y2="266.0" stroke="#1d2330" stroke-width="1.3"/>
<line x1="62.0" y1="266.0" x2="62.0" y2="34.0" stroke="#1d2330" stroke-width="1.3"/>
<text x="56.0" y="28.0" font-size="10.5" fill="#1d2330" text-anchor="start" font-family="-apple-system,'Segoe UI',Helvetica,Arial,sans-serif" font-style="italic">Personnes écrouées</text>
<rect x="79.5" y="199.4" width="25.6" height="66.6" fill="#1f4e79"/>
<rect x="107.1" y="196.4" width="25.6" height="69.6" fill="#4f81bd"/>
<rect x="134.8" y="195.3" width="25.6" height="70.7" fill="#9dc3e6"/>
<rect x="162.4" y="191.6" width="25.6" height="74.4" fill="#c26a00"/>
<text x="134.8" y="281.0" font-size="10.5" fill="#1d2330" text-anchor="middle" font-family="-apple-system,'Segoe UI',Helvetica,Arial,sans-serif">Prévenus</text>
<text x="134.8" y="294.0" font-size="10.5" fill="#1d2330" text-anchor="middle" font-family="-apple-system,'Segoe UI',Helvetica,Arial,sans-serif">détenus</text>
<rect x="225.0" y="256.9" width="25.6" height="9.1" fill="#1f4e79"/>
<rect x="252.6" y="256.2" width="25.6" height="9.8" fill="#4f81bd"/>
<rect x="280.2" y="255.0" width="25.6" height="11.0" fill="#9dc3e6"/>
<rect x="307.9" y="254.3" width="25.6" height="11.7" fill="#c26a00"/>
<text x="280.2" y="281.0" font-size="10.5" fill="#1d2330" text-anchor="middle" font-family="-apple-system,'Segoe UI',Helvetica,Arial,sans-serif">Condamnés-prévenus</text>
<text x="280.2" y="294.0" font-size="10.5" fill="#1d2330" text-anchor="middle" font-family="-apple-system,'Segoe UI',Helvetica,Arial,sans-serif">détenus</text>
<rect x="370.5" y="109.5" width="25.6" height="156.5" fill="#1f4e79"/>
<rect x="398.1" y="88.0" width="25.6" height="178.0" fill="#4f81bd"/>
<rect x="425.8" y="80.2" width="25.6" height="185.8" fill="#9dc3e6"/>
<rect x="453.4" y="71.1" width="25.6" height="194.9" fill="#c26a00"/>
<text x="425.8" y="281.0" font-size="10.5" fill="#1d2330" text-anchor="middle" font-family="-apple-system,'Segoe UI',Helvetica,Arial,sans-serif">Condamnés</text>
<text x="425.8" y="294.0" font-size="10.5" fill="#1d2330" text-anchor="middle" font-family="-apple-system,'Segoe UI',Helvetica,Arial,sans-serif">détenus</text>
<rect x="516.0" y="220.1" width="25.6" height="45.9" fill="#1f4e79"/>
<rect x="543.6" y="214.6" width="25.6" height="51.4" fill="#4f81bd"/>
<rect x="571.2" y="212.2" width="25.6" height="53.8" fill="#9dc3e6"/>
<rect x="598.9" y="207.8" width="25.6" height="58.2" fill="#c26a00"/>
<text x="571.2" y="281.0" font-size="10.5" fill="#1d2330" text-anchor="middle" font-family="-apple-system,'Segoe UI',Helvetica,Arial,sans-serif">Condamnés</text>
<text x="571.2" y="294.0" font-size="10.5" fill="#1d2330" text-anchor="middle" font-family="-apple-system,'Segoe UI',Helvetica,Arial,sans-serif">non détenus</text>
<rect x="62.0" y="311.0" width="11" height="11" fill="#1f4e79"/>
<text x="77.0" y="320.0" font-size="10.5" fill="#1d2330" text-anchor="start" font-family="-apple-system,'Segoe UI',Helvetica,Arial,sans-serif">2020</text>
<rect x="116.8" y="311.0" width="11" height="11" fill="#4f81bd"/>
<text x="131.8" y="320.0" font-size="10.5" fill="#1d2330" text-anchor="start" font-family="-apple-system,'Segoe UI',Helvetica,Arial,sans-serif">2021</text>
<rect x="171.6" y="311.0" width="11" height="11" fill="#9dc3e6"/>
<text x="186.6" y="320.0" font-size="10.5" fill="#1d2330" text-anchor="start" font-family="-apple-system,'Segoe UI',Helvetica,Arial,sans-serif">2022</text>
<rect x="226.4" y="311.0" width="11" height="11" fill="#c26a00"/>
<text x="241.4" y="320.0" font-size="10.5" fill="#1d2330" text-anchor="start" font-family="-apple-system,'Segoe UI',Helvetica,Arial,sans-serif">2023</text>
<text x="361.0" y="344.0" font-size="10.5" fill="#6b7280" text-anchor="middle" font-family="-apple-system,'Segoe UI',Helvetica,Arial,sans-serif" font-style="italic">Groupement par catégorie : on lit l'évolution de chaque catégorie d'une année à l'autre.</text>
</svg>
