<svg xmlns="http://www.w3.org/2000/svg" viewBox="0 0 640 330" width="640" height="330"><g transform="translate(0,0)"><defs><marker id="fl" viewBox="0 0 10 10" refX="9" refY="5" markerWidth="7" markerHeight="7" orient="auto-start-reverse"><path d="M0,0 L10,5 L0,10 z" fill="#1d2330"/></marker></defs><line x1="50.0" y1="79.0" x2="630.0" y2="79.0" stroke="#1d2330" stroke-width="1.4" marker-end="url(#fl)"/><line x1="50.0" y1="79.0" x2="50.0" y2="8.0" stroke="#1d2330" stroke-width="1.4" marker-end="url(#fl)"/><text x="628.0" y="109.0" font-size="12" fill="#1d2330" text-anchor="end" font-family="-apple-system,'Segoe UI',Helvetica,Arial,sans-serif" font-style="italic"></text><text x="42.0" y="2.0" font-size="12" fill="#1d2330" text-anchor="start" font-family="-apple-system,'Segoe UI',Helvetica,Arial,sans-serif" font-style="italic"></text><rect x="99.9" y="52.8" width="9.6" height="26.2" fill="#1f4e79"/><rect x="154.6" y="26.5" width="9.6" height="52.5" fill="#1f4e79"/><rect x="181.9" y="26.5" width="9.6" height="52.5" fill="#1f4e79"/><rect x="236.6" y="26.5" width="9.6" height="52.5" fill="#1f4e79"/><rect x="263.9" y="26.5" width="9.6" height="52.5" fill="#1f4e79"/><rect x="318.5" y="52.8" width="9.6" height="26.2" fill="#1f4e79"/><line x1="214.0" y1="79.0" x2="214.0" y2="16.0" stroke="#b3261e" stroke-width="1.6" stroke-dasharray="4 3"/><text x="624.0" y="22.0" font-size="11" fill="#1f4e79" text-anchor="end" font-family="-apple-system,'Segoe UI',Helvetica,Arial,sans-serif" font-weight="600">X (cas 4) : m = 12, σ = 4,56</text></g><g transform="translate(0,105)"><defs><marker id="fl" viewBox="0 0 10 10" refX="9" refY="5" markerWidth="7" markerHeight="7" orient="auto-start-reverse"><path d="M0,0 L10,5 L0,10 z" fill="#1d2330"/></marker></defs><line x1="50.0" y1="79.0" x2="630.0" y2="79.0" stroke="#1d2330" stroke-width="1.4" marker-end="url(#fl)"/><line x1="50.0" y1="79.0" x2="50.0" y2="8.0" stroke="#1d2330" stroke-width="1.4" marker-end="url(#fl)"/><text x="628.0" y="109.0" font-size="12" fill="#1d2330" text-anchor="end" font-family="-apple-system,'Segoe UI',Helvetica,Arial,sans-serif" font-style="italic"></text><text x="42.0" y="2.0" font-size="12" fill="#1d2330" text-anchor="start" font-family="-apple-system,'Segoe UI',Helvetica,Arial,sans-serif" font-style="italic"></text><rect x="181.9" y="52.8" width="9.6" height="26.2" fill="#2e7d32"/><rect x="236.6" y="26.5" width="9.6" height="52.5" fill="#2e7d32"/><rect x="263.9" y="26.5" width="9.6" height="52.5" fill="#2e7d32"/><rect x="318.5" y="26.5" width="9.6" height="52.5" fill="#2e7d32"/><rect x="345.9" y="26.5" width="9.6" height="52.5" fill="#2e7d32"/><rect x="400.5" y="52.8" width="9.6" height="26.2" fill="#2e7d32"/><line x1="296.0" y1="79.0" x2="296.0" y2="16.0" stroke="#b3261e" stroke-width="1.6" stroke-dasharray="4 3"/><text x="624.0" y="22.0" font-size="11" fill="#2e7d32" text-anchor="end" font-family="-apple-system,'Segoe UI',Helvetica,Arial,sans-serif" font-weight="600">X + 6 : m = 18, σ = 4,56 (inchangé)</text></g><g transform="translate(0,210)"><defs><marker id="fl" viewBox="0 0 10 10" refX="9" refY="5" markerWidth="7" markerHeight="7" orient="auto-start-reverse"><path d="M0,0 L10,5 L0,10 z" fill="#1d2330"/></marker></defs><line x1="50.0" y1="79.0" x2="630.0" y2="79.0" stroke="#1d2330" stroke-width="1.4" marker-end="url(#fl)"/><line x1="50.0" y1="79.0" x2="50.0" y2="8.0" stroke="#1d2330" stroke-width="1.4" marker-end="url(#fl)"/><text x="628.0" y="109.0" font-size="12" fill="#1d2330" text-anchor="end" font-family="-apple-system,'Segoe UI',Helvetica,Arial,sans-serif" font-style="italic"></text><text x="42.0" y="2.0" font-size="12" fill="#1d2330" text-anchor="start" font-family="-apple-system,'Segoe UI',Helvetica,Arial,sans-serif" font-style="italic"></text><line x1="50.0" y1="79.0" x2="50.0" y2="83.0" stroke="#1d2330"/><text x="50.0" y="95.0" font-size="11" fill="#1d2330" text-anchor="middle" font-family="-apple-system,'Segoe UI',Helvetica,Arial,sans-serif">0</text><line x1="132.0" y1="79.0" x2="132.0" y2="83.0" stroke="#1d2330"/><text x="132.0" y="95.0" font-size="11" fill="#1d2330" text-anchor="middle" font-family="-apple-system,'Segoe UI',Helvetica,Arial,sans-serif">6</text><line x1="214.0" y1="79.0" x2="214.0" y2="83.0" stroke="#1d2330"/><text x="214.0" y="95.0" font-size="11" fill="#1d2330" text-anchor="middle" font-family="-apple-system,'Segoe UI',Helvetica,Arial,sans-serif">12</text><line x1="296.0" y1="79.0" x2="296.0" y2="83.0" stroke="#1d2330"/><text x="296.0" y="95.0" font-size="11" fill="#1d2330" text-anchor="middle" font-family="-apple-system,'Segoe UI',Helvetica,Arial,sans-serif">18</text><line x1="378.0" y1="79.0" x2="378.0" y2="83.0" stroke="#1d2330"/><text x="378.0" y="95.0" font-size="11" fill="#1d2330" text-anchor="middle" font-family="-apple-system,'Segoe UI',Helvetica,Arial,sans-serif">24</text><line x1="460.0" y1="79.0" x2="460.0" y2="83.0" stroke="#1d2330"/><text x="460.0" y="95.0" font-size="11" fill="#1d2330" text-anchor="middle" font-family="-apple-system,'Segoe UI',Helvetica,Arial,sans-serif">30</text><line x1="542.0" y1="79.0" x2="542.0" y2="83.0" stroke="#1d2330"/><text x="542.0" y="95.0" font-size="11" fill="#1d2330" text-anchor="middle" font-family="-apple-system,'Segoe UI',Helvetica,Arial,sans-serif">36</text><line x1="624.0" y1="79.0" x2="624.0" y2="83.0" stroke="#1d2330"/><text x="624.0" y="95.0" font-size="11" fill="#1d2330" text-anchor="middle" font-family="-apple-system,'Segoe UI',Helvetica,Arial,sans-serif">42</text><rect x="154.6" y="52.8" width="9.6" height="26.2" fill="#c26a00"/><rect x="263.9" y="26.5" width="9.6" height="52.5" fill="#c26a00"/><rect x="318.5" y="26.5" width="9.6" height="52.5" fill="#c26a00"/><rect x="427.9" y="26.5" width="9.6" height="52.5" fill="#c26a00"/><rect x="482.6" y="26.5" width="9.6" height="52.5" fill="#c26a00"/><rect x="591.9" y="52.8" width="9.6" height="26.2" fill="#c26a00"/><line x1="378.0" y1="79.0" x2="378.0" y2="16.0" stroke="#b3261e" stroke-width="1.6" stroke-dasharray="4 3"/><text x="624.0" y="22.0" font-size="11" fill="#c26a00" text-anchor="end" font-family="-apple-system,'Segoe UI',Helvetica,Arial,sans-serif" font-weight="600">2X : m = 24, σ = 9,12 (doublé)</text></g></svg>