<svg xmlns="http://www.w3.org/2000/svg" viewBox="0 0 560 440" width="560" height="440">
<rect x="0" y="0" width="560" height="440" fill="#ffffff"/>
<defs><marker id="fl" viewBox="0 0 10 10" refX="9" refY="5" markerWidth="7" markerHeight="7" orient="auto-start-reverse"><path d="M0,0 L10,5 L0,10 z" fill="#6b7280"/></marker></defs>
<line x1="64.0" y1="376.0" x2="530.0" y2="376.0" stroke="#e3e6ea" stroke-width="1"/>
<text x="58.0" y="380.0" font-size="10" fill="#6b7280" text-anchor="end" font-family="-apple-system,'Segoe UI',Helvetica,Arial,sans-serif">0 %</text>
<line x1="64.0" y1="306.8" x2="530.0" y2="306.8" stroke="#e3e6ea" stroke-width="1"/>
<text x="58.0" y="310.8" font-size="10" fill="#6b7280" text-anchor="end" font-family="-apple-system,'Segoe UI',Helvetica,Arial,sans-serif">20 %</text>
<line x1="64.0" y1="237.6" x2="530.0" y2="237.6" stroke="#e3e6ea" stroke-width="1"/>
<text x="58.0" y="241.6" font-size="10" fill="#6b7280" text-anchor="end" font-family="-apple-system,'Segoe UI',Helvetica,Arial,sans-serif">40 %</text>
<line x1="64.0" y1="168.4" x2="530.0" y2="168.4" stroke="#e3e6ea" stroke-width="1"/>
<text x="58.0" y="172.4" font-size="10" fill="#6b7280" text-anchor="end" font-family="-apple-system,'Segoe UI',Helvetica,Arial,sans-serif">60 %</text>
<line x1="64.0" y1="99.2" x2="530.0" y2="99.2" stroke="#e3e6ea" stroke-width="1"/>
<text x="58.0" y="103.2" font-size="10" fill="#6b7280" text-anchor="end" font-family="-apple-system,'Segoe UI',Helvetica,Arial,sans-serif">80 %</text>
<line x1="64.0" y1="30.0" x2="530.0" y2="30.0" stroke="#e3e6ea" stroke-width="1"/>
<text x="58.0" y="34.0" font-size="10" fill="#6b7280" text-anchor="end" font-family="-apple-system,'Segoe UI',Helvetica,Arial,sans-serif">100 %</text>
<line x1="64.0" y1="376.0" x2="64.0" y2="380.0" stroke="#1d2330" stroke-width="1"/>
<text x="64.0" y="392.0" font-size="10.5" fill="#1d2330" text-anchor="middle" font-family="-apple-system,'Segoe UI',Helvetica,Arial,sans-serif">0 %</text>
<line x1="157.2" y1="376.0" x2="157.2" y2="380.0" stroke="#1d2330" stroke-width="1"/>
<text x="157.2" y="392.0" font-size="10.5" fill="#1d2330" text-anchor="middle" font-family="-apple-system,'Segoe UI',Helvetica,Arial,sans-serif">20 %</text>
<line x1="250.4" y1="376.0" x2="250.4" y2="380.0" stroke="#1d2330" stroke-width="1"/>
<text x="250.4" y="392.0" font-size="10.5" fill="#1d2330" text-anchor="middle" font-family="-apple-system,'Segoe UI',Helvetica,Arial,sans-serif">40 %</text>
<line x1="343.6" y1="376.0" x2="343.6" y2="380.0" stroke="#1d2330" stroke-width="1"/>
<text x="343.6" y="392.0" font-size="10.5" fill="#1d2330" text-anchor="middle" font-family="-apple-system,'Segoe UI',Helvetica,Arial,sans-serif">60 %</text>
<line x1="436.8" y1="376.0" x2="436.8" y2="380.0" stroke="#1d2330" stroke-width="1"/>
<text x="436.8" y="392.0" font-size="10.5" fill="#1d2330" text-anchor="middle" font-family="-apple-system,'Segoe UI',Helvetica,Arial,sans-serif">80 %</text>
<line x1="530.0" y1="376.0" x2="530.0" y2="380.0" stroke="#1d2330" stroke-width="1"/>
<text x="530.0" y="392.0" font-size="10.5" fill="#1d2330" text-anchor="middle" font-family="-apple-system,'Segoe UI',Helvetica,Arial,sans-serif">100 %</text>
<line x1="64.0" y1="376.0" x2="534.0" y2="376.0" stroke="#1d2330" stroke-width="1.3"/>
<line x1="64.0" y1="376.0" x2="64.0" y2="22.0" stroke="#1d2330" stroke-width="1.3"/>
<text x="60.0" y="16.0" font-size="10.5" fill="#1d2330" text-anchor="start" font-family="-apple-system,'Segoe UI',Helvetica,Arial,sans-serif" font-style="italic">Part cumulée de la masse salariale</text>
<text x="530.0" y="408.0" font-size="10.5" fill="#1d2330" text-anchor="end" font-family="-apple-system,'Segoe UI',Helvetica,Arial,sans-serif" font-style="italic">Part cumulée des salariés</text>
<line x1="64.0" y1="376.0" x2="530.0" y2="30.0" stroke="#6b7280" stroke-width="1.4" stroke-dasharray="5 4"/>
<text x="320.3" y="161.5" font-size="10.5" fill="#6b7280" text-anchor="middle" font-family="-apple-system,'Segoe UI',Helvetica,Arial,sans-serif" font-style="italic" transform="rotate(-39 320.3 161.5)">égalité parfaite</text>
<path d="M64.0,376.0 L157.2,337.2 L250.4,291.2 L343.6,235.2 L436.8,162.2 L530.0,30.0" fill="none" stroke="#1f4e79" stroke-width="2.6"/>
<circle cx="64.0" cy="376.0" r="3.6" fill="#1f4e79" stroke="#1f4e79" stroke-width="1.6"/>
<circle cx="157.2" cy="337.2" r="3.6" fill="#1f4e79" stroke="#1f4e79" stroke-width="1.6"/>
<text x="149.2" y="329.2" font-size="10" fill="#1f4e79" text-anchor="end" font-family="-apple-system,'Segoe UI',Helvetica,Arial,sans-serif" font-weight="700">11,2</text>
<circle cx="250.4" cy="291.2" r="3.6" fill="#1f4e79" stroke="#1f4e79" stroke-width="1.6"/>
<text x="242.4" y="283.2" font-size="10" fill="#1f4e79" text-anchor="end" font-family="-apple-system,'Segoe UI',Helvetica,Arial,sans-serif" font-weight="700">24,5</text>
<circle cx="343.6" cy="235.2" r="3.6" fill="#1f4e79" stroke="#1f4e79" stroke-width="1.6"/>
<text x="335.6" y="227.2" font-size="10" fill="#1f4e79" text-anchor="end" font-family="-apple-system,'Segoe UI',Helvetica,Arial,sans-serif" font-weight="700">40,7</text>
<circle cx="436.8" cy="162.2" r="3.6" fill="#1f4e79" stroke="#1f4e79" stroke-width="1.6"/>
<text x="428.8" y="154.2" font-size="10" fill="#1f4e79" text-anchor="end" font-family="-apple-system,'Segoe UI',Helvetica,Arial,sans-serif" font-weight="700">61,8</text>
<circle cx="530.0" cy="30.0" r="3.6" fill="#1f4e79" stroke="#1f4e79" stroke-width="1.6"/>
<text x="251.0" y="245.9" font-size="12.5" fill="#1f4e79" text-anchor="middle" font-family="-apple-system,'Segoe UI',Helvetica,Arial,sans-serif" font-weight="700">2005</text>
<path d="M64.0,376.0 L157.2,362.5 L250.4,325.8 L343.6,262.2 L436.8,169.8 L530.0,30.0" fill="none" stroke="#b35c00" stroke-width="2.6"/>
<circle cx="64.0" cy="376.0" r="3.6" fill="#b35c00" stroke="#b35c00" stroke-width="1.6"/>
<circle cx="157.2" cy="362.5" r="3.6" fill="#b35c00" stroke="#b35c00" stroke-width="1.6"/>
<text x="166.2" y="366.5" font-size="10" fill="#b35c00" text-anchor="start" font-family="-apple-system,'Segoe UI',Helvetica,Arial,sans-serif" font-weight="700">3,9</text>
<circle cx="250.4" cy="325.8" r="3.6" fill="#b35c00" stroke="#b35c00" stroke-width="1.6"/>
<text x="259.4" y="329.8" font-size="10" fill="#b35c00" text-anchor="start" font-family="-apple-system,'Segoe UI',Helvetica,Arial,sans-serif" font-weight="700">14,5</text>
<circle cx="343.6" cy="262.2" r="3.6" fill="#b35c00" stroke="#b35c00" stroke-width="1.6"/>
<text x="352.6" y="266.2" font-size="10" fill="#b35c00" text-anchor="start" font-family="-apple-system,'Segoe UI',Helvetica,Arial,sans-serif" font-weight="700">32,9</text>
<circle cx="436.8" cy="169.8" r="3.6" fill="#b35c00" stroke="#b35c00" stroke-width="1.6"/>
<text x="445.8" y="173.8" font-size="10" fill="#b35c00" text-anchor="start" font-family="-apple-system,'Segoe UI',Helvetica,Arial,sans-serif" font-weight="700">59,6</text>
<circle cx="530.0" cy="30.0" r="3.6" fill="#b35c00" stroke="#b35c00" stroke-width="1.6"/>
<text x="307.0" y="304.9" font-size="12.5" fill="#b35c00" text-anchor="middle" font-family="-apple-system,'Segoe UI',Helvetica,Arial,sans-serif" font-weight="700">2021</text>
<text x="300.0" y="428.0" font-size="10.5" fill="#6b7280" text-anchor="middle" font-family="-apple-system,'Segoe UI',Helvetica,Arial,sans-serif" font-style="italic">La courbe de 2021 est partout plus loin de la diagonale : inégalités plus fortes.</text>
</svg>
