<svg xmlns="http://www.w3.org/2000/svg" viewBox="0 0 600 340" width="600" height="340"><line x1="56" y1="270.0" x2="584" y2="270.0" stroke="#1d2330" stroke-width="1.3"/><line x1="56" y1="270.0" x2="56" y2="12.0" stroke="#1d2330" stroke-width="1.3"/><line x1="56" y1="270.0" x2="584" y2="270.0" stroke="#e3e6ea"/><text x="50.0" y="274.0" font-size="10" fill="#8c929c" text-anchor="end" font-family="-apple-system,'Segoe UI',Helvetica,Arial,sans-serif">0</text><line x1="56" y1="206.5" x2="584" y2="206.5" stroke="#e3e6ea"/><text x="50.0" y="210.5" font-size="10" fill="#8c929c" text-anchor="end" font-family="-apple-system,'Segoe UI',Helvetica,Arial,sans-serif">15 000</text><line x1="56" y1="143.0" x2="584" y2="143.0" stroke="#e3e6ea"/><text x="50.0" y="147.0" font-size="10" fill="#8c929c" text-anchor="end" font-family="-apple-system,'Segoe UI',Helvetica,Arial,sans-serif">30 000</text><line x1="56" y1="79.5" x2="584" y2="79.5" stroke="#e3e6ea"/><text x="50.0" y="83.5" font-size="10" fill="#8c929c" text-anchor="end" font-family="-apple-system,'Segoe UI',Helvetica,Arial,sans-serif">45 000</text><line x1="56" y1="16.0" x2="584" y2="16.0" stroke="#e3e6ea"/><text x="50.0" y="20.0" font-size="10" fill="#8c929c" text-anchor="end" font-family="-apple-system,'Segoe UI',Helvetica,Arial,sans-serif">60 000</text><text x="14.0" y="143.0" font-size="11" fill="#1d2330" text-anchor="middle" font-family="-apple-system,'Segoe UI',Helvetica,Arial,sans-serif" transform="rotate(-90 14.0 143.0)">personnes écrouées</text><rect x="74.5" y="195.1" width="21.8" height="74.9" fill="#1f4e79"/><rect x="98.2" y="259.8" width="21.8" height="10.2" fill="#c26a00"/><rect x="122.0" y="94.1" width="21.8" height="175.9" fill="#2e7d32"/><rect x="145.8" y="218.4" width="21.8" height="51.6" fill="#b3261e"/><text x="122.0" y="285.0" font-size="10.5" fill="#1d2330" text-anchor="middle" font-family="-apple-system,'Segoe UI',Helvetica,Arial,sans-serif">2020</text><rect x="206.5" y="191.7" width="21.8" height="78.3" fill="#1f4e79"/><rect x="230.2" y="258.9" width="21.8" height="11.1" fill="#c26a00"/><rect x="254.0" y="70.0" width="21.8" height="200.0" fill="#2e7d32"/><rect x="277.8" y="212.2" width="21.8" height="57.8" fill="#b3261e"/><text x="254.0" y="285.0" font-size="10.5" fill="#1d2330" text-anchor="middle" font-family="-apple-system,'Segoe UI',Helvetica,Arial,sans-serif">2021</text><rect x="338.5" y="190.5" width="21.8" height="79.5" fill="#1f4e79"/><rect x="362.2" y="257.7" width="21.8" height="12.3" fill="#c26a00"/><rect x="386.0" y="61.1" width="21.8" height="208.9" fill="#2e7d32"/><rect x="409.8" y="209.5" width="21.8" height="60.5" fill="#b3261e"/><text x="386.0" y="285.0" font-size="10.5" fill="#1d2330" text-anchor="middle" font-family="-apple-system,'Segoe UI',Helvetica,Arial,sans-serif">2022</text><rect x="470.5" y="186.4" width="21.8" height="83.6" fill="#1f4e79"/><rect x="494.2" y="256.8" width="21.8" height="13.2" fill="#c26a00"/><rect x="518.0" y="50.9" width="21.8" height="219.1" fill="#2e7d32"/><rect x="541.8" y="204.6" width="21.8" height="65.4" fill="#b3261e"/><text x="518.0" y="285.0" font-size="10.5" fill="#1d2330" text-anchor="middle" font-family="-apple-system,'Segoe UI',Helvetica,Arial,sans-serif">2023</text><rect x="56.0" y="309.0" width="11" height="11" fill="#1f4e79"/><text x="71.0" y="318.0" font-size="10.5" fill="#1d2330" text-anchor="start" font-family="-apple-system,'Segoe UI',Helvetica,Arial,sans-serif">Prévenus dét.</text><rect x="161.2" y="309.0" width="11" height="11" fill="#c26a00"/><text x="176.2" y="318.0" font-size="10.5" fill="#1d2330" text-anchor="start" font-family="-apple-system,'Segoe UI',Helvetica,Arial,sans-serif">Cond.-prév. dét.</text><rect x="285.6" y="309.0" width="11" height="11" fill="#2e7d32"/><text x="300.6" y="318.0" font-size="10.5" fill="#1d2330" text-anchor="start" font-family="-apple-system,'Segoe UI',Helvetica,Arial,sans-serif">Condamnés dét.</text><rect x="397.2" y="309.0" width="11" height="11" fill="#b3261e"/><text x="412.2" y="318.0" font-size="10.5" fill="#1d2330" text-anchor="start" font-family="-apple-system,'Segoe UI',Helvetica,Arial,sans-serif">Cond. non dét.</text></svg>